<?xml version="1.0" encoding="utf-8"?>
<!DOCTYPE svg PUBLIC "-//W3C//DTD SVG 1.0//EN" "http://www.w3.org/TR/2001/REC-SVG-20010904/DTD/svg10.dtd">
<svg version="1.0" xmlns="http://www.w3.org/2000/svg" width="3587px" height="1925px" viewBox="0 0 3587 1925" preserveAspectRatio="xMidYMid meet">
 <g fill="#ffffff">
  <path d="M1580.3 1459.7 l-56.3 -54.9 0 -368.4 0 -368.4 55.3 0.1 55.2 0 160 188.9 c88 103.9 160.3 188.9 160.7 189 0.5 0 0.9 -153.9 1 -341.9 l0.3 -341.9 56.2 54.6 56.3 54.7 0 366.8 0 366.7 -56.9 0 -56.8 0 -158.4 -182.5 c-87.1 -100.4 -158.7 -182.5 -159.1 -182.5 -0.4 0 -0.9 151.8 -1 337.3 l-0.3 337.4 -56.2 -55z"/>
  <path d="M107.5 936.3 c-57.7 -146.1 -105.1 -266.2 -105.3 -267 -0.3 -1.1 9.7 -1.3 60.9 -1.1 l61.3 0.3 72.5 185.8 c39.9 102.1 72.8 185.4 73.2 185 0.4 -0.5 32.5 -84 71.3 -185.7 38.8 -101.7 70.8 -185.1 71 -185.3 0.1 -0.2 27.8 -0.2 61.3 -0.1 l61.1 0.3 -96.9 245 c-53.3 134.8 -100.8 254.8 -105.5 266.8 l-8.6 21.7 -55.6 0 -55.7 -0.1 -105 -265.6z"/>
  <path d="M766 935 l0 -267 266.5 0 266.5 0 0 52.5 0 52.5 -214.5 0 -214.4 0 0.5 33.3 c0.7 46.4 2.4 238.2 2.4 267 l0 23.7 213 0 213 0 0 52.5 0 52.5 -266.5 0 -266.5 0 0 -267z"/>
  <path d="M2291 935 l0 -267 266.5 0 266.5 0 0 267 0 267 -266.5 0 -266.5 0 0 -267z m429 0 l0 -162 -162 0 -162 0 0 19.3 c-0.1 42 2.1 282.9 2.6 293.5 l0.6 11.2 160.4 0 160.4 0 0 -162z"/>
  <path d="M3052 935 l0 -267 267 0 267 0 0 267 0 267 -52.5 0 -52.5 0 0 -214.5 0 -214.5 -55 0 -55 0 0 214.5 0 214.5 -52.5 0 -52.5 0 0 -214.5 0 -214.5 -54.5 0 -54.5 0 0 214.5 0 214.5 -52.5 0 -52.5 0 0 -267z"/>
  <path d="M926 935.5 l0 -52.5 186.5 0 186.5 0 0 52.5 0 52.5 -186.5 0 -186.5 0 0 -52.5z"/>
 </g>
 <g fill="#0084ff">
  <path d="M1367.5 1900.8 c-21.4 -12.2 -104.2 -59.3 -184 -104.8 -79.7 -45.5 -160.7 -91.6 -180 -102.5 -19.2 -10.8 -35.1 -19.9 -35.3 -20 -0.3 -0.3 -30.2 -382.9 -30.2 -386.6 0 -1.4 9.7 -1.6 100.8 -2.2 55.4 -0.4 105.5 -0.4 111.3 -0.1 l10.6 0.7 1.2 6.6 c4.9 27 19.9 93.3 30.2 134.1 52 204.9 119.4 364.2 203.2 480.8 6.4 8.9 11.6 16.2 11.4 16.2 -0.1 -0.1 -17.7 -10 -39.2 -22.2z"/>
  <path d="M2194.7 1907.3 c42 -58 82.2 -131.3 119.8 -218.8 21.6 -50.3 36 -88.6 49.9 -133.2 22 -70.6 36.3 -129.5 63.5 -261.8 l1.6 -8 111.3 -0.3 111.2 -0.2 0 2.2 c-0.1 4.5 -29.8 389 -30.2 389.3 -0.1 0.1 -25 14.1 -55.3 31 -30.2 16.9 -95 53.4 -144 81 -158.9 89.7 -237.1 133.5 -238 133.5 -0.3 0 4.3 -6.6 10.2 -14.7z"/>
  <path d="M2481 934 l0 -78 78 0 78 0 0 78 0 78 -78 0 -78 0 0 -78z"/>
  <path d="M914.1 552.3 c0.1 -51 5.4 -496.1 5.9 -496.7 0.3 -0.2 77.2 -12.4 171 -27.1 93.8 -14.6 171.5 -26.9 172.6 -27.2 2.1 -0.4 2.1 -0.3 -0.8 9.9 -19.5 68.9 -46.2 178.3 -66.8 273.8 -19.7 91.3 -22.5 106.5 -36.5 202 -7.5 50.3 -13.8 92.5 -14 93.8 l-0.5 2.2 -115.5 0 -115.5 0 0.1 -30.7z"/>
  <path d="M2441.6 578.8 c-0.3 -2.4 -1 -10.1 -1.6 -17.3 -1.9 -22.6 -6.9 -66.1 -10.6 -92 -17.2 -121.8 -41.4 -230.4 -99.8 -448 -2.9 -11 -5.3 -20.1 -5.2 -20.2 0.2 -0.3 345.1 53.9 345.6 54.4 0.3 0.2 1.8 86.5 3.4 191.6 2.8 179.2 2.9 195.6 1.7 261.2 -0.7 38.5 -1.4 71 -1.7 72.3 l-0.4 2.2 -115.5 0 -115.4 0 -0.5 -4.2z"/>
 </g>
</svg>